# xmcd
#
# Track frame offsets: 
#        150
#        9965
#        22222
#        41265
#        53148
#        68472
#        88608
#        106282
#        127215
#        150272
#        168365
#        180195
#        225140
#
# Disc length: 3132 seconds
#
# Revision: 0
# Processed by: cddbd v1.5.2PL0 Copyright (c) Steve Scherf et al.
# Submitted via: ExactAudioCopy v0.99pb3
#
DISCID=890c3a0d
DTITLE=K Morlot - Sortie n°1
DYEAR=2009
DGENRE=Chanson
TTITLE0=Fille sans joie
TTITLE1=Chuis pas bo !
TTITLE2=A bout d'soufle
TTITLE3=(Jamais) le ventre d'une autre femme
TTITLE4=Ode to Aude
TTITLE5=Inceste
TTITLE6=Le temps est un filtre sur
TTITLE7=En bas, en haut
TTITLE8=Les chiens
TTITLE9=Rater
TTITLE10=Le Yapuka feat, Stephanie Firelegz
TTITLE11=En verite
TTITLE12=Pascaliiine Feat, Raymond l'elegant
EXTD=
EXTT0=
EXTT1=
EXTT2=
EXTT3=
EXTT4=
EXTT5=
EXTT6=
EXTT7=
EXTT8=
EXTT9=
EXTT10=
EXTT11=
EXTT12=
PLAYORDER=
